<?xml version="1.0" standalone="no"?>
<!DOCTYPE svg PUBLIC "-//W3C//DTD SVG 20010904//EN"
 "http://www.w3.org/TR/2001/REC-SVG-20010904/DTD/svg10.dtd">
<svg version="1.0" xmlns="http://www.w3.org/2000/svg"
 width="1408.000000pt" height="768.000000pt" viewBox="0 0 1408.000000 768.000000"
 preserveAspectRatio="xMidYMid meet">

<g transform="translate(0.000000,768.000000) scale(0.100000,-0.100000)"
fill="#000000" stroke="none">
<path d="M0 7620 c0 -33 2 -60 5 -60 7 0 130 62 185 94 l45 26 -117 0 -118 0
0 -60z"/>
<path d="M148 7597 l-148 -82 0 -68 c0 -79 -17 -81 150 18 58 34 164 97 235
139 l130 76 -110 -1 -110 0 -147 -82z"/>
<path d="M278 7517 l-277 -162 -1 -59 c0 -58 0 -58 23 -44 30 20 410 243 586
345 l144 83 -99 0 -99 0 -277 -163z"/>
<path d="M740 7651 c-25 -16 -201 -122 -392 -235 l-348 -207 0 -80 c0 -43 2
-79 5 -79 19 0 1025 614 1025 626 0 2 -55 4 -122 3 -117 0 -125 -2 -168 -28z"/>
<path d="M1305 7649 c-64 -40 -78 -54 -45 -44 14 4 31 12 39 19 8 6 24 9 37 8
13 -2 24 2 24 8 0 6 -6 8 -12 5 -7 -4 -2 3 12 14 39 32 3 25 -55 -10z"/>
<path d="M1540 7670 c0 -5 -9 -10 -19 -10 -34 0 -49 -10 -44 -31 6 -20 -20
-28 -32 -9 -3 6 -15 10 -26 10 -11 0 -18 -4 -15 -9 3 -5 -1 -12 -10 -15 -25
-10 -74 -7 -74 4 0 6 -5 10 -11 10 -5 0 -7 -4 -4 -10 3 -5 -3 -10 -13 -10 -11
0 -25 -7 -32 -15 -7 -8 -16 -13 -20 -10 -8 5 -50 -32 -50 -45 0 -10 -52 -9
-60 2 -7 9 -129 -63 -130 -76 0 -6 5 -5 12 2 7 7 17 12 22 12 6 0 4 -5 -4 -9
-8 -5 -18 -8 -21 -8 -3 1 -13 -4 -22 -12 -10 -7 -17 -10 -17 -5 0 5 -4 3 -9
-5 -5 -8 -8 -24 -5 -35 3 -18 1 -19 -9 -6 -7 8 -33 17 -60 18 -57 5 -94 -15
-491 -252 -149 -89 -299 -178 -333 -196 -62 -34 -63 -35 -63 -78 l0 -44 47 28
c27 15 208 122 403 237 468 278 435 260 447 245 6 -7 9 -21 8 -31 -2 -9 1 -14
7 -11 7 4 8 -5 3 -27 -20 -91 -49 -162 -88 -216 -51 -68 -176 -192 -262 -259
-60 -47 -345 -237 -489 -326 l-76 -47 0 -116 c0 -63 3 -115 8 -115 4 0 32 15
62 33 30 19 161 98 290 177 129 79 253 153 274 166 l39 22 144 -71 c78 -39
143 -74 143 -77 0 -3 -24 -18 -53 -34 -28 -15 -244 -143 -479 -283 l-428 -255
0 -165 0 -164 43 24 c23 14 71 40 107 59 97 52 185 103 280 162 47 29 243 147
435 261 381 226 536 319 690 417 22 14 58 36 80 49 75 43 260 168 291 196 18
15 37 38 43 50 12 23 5 73 -10 73 -4 0 13 20 39 44 46 44 47 45 50 118 l4 73
70 45 c128 82 195 178 212 308 6 38 3 46 -23 70 l-30 27 24 68 c14 37 25 72
25 77 0 6 -151 10 -395 10 -257 0 -395 -4 -395 -10z m-186 -89 c4 -5 -3 -7
-14 -4 -23 6 -26 13 -6 13 8 0 17 -4 20 -9z m442 -279 l2 -67 43 -28 c24 -16
77 -45 117 -65 40 -20 71 -41 69 -47 -2 -5 -235 -149 -517 -319 l-514 -309
-91 48 c-159 84 -285 157 -285 164 1 3 33 26 73 50 40 24 142 87 227 139 85
52 216 131 290 175 74 44 155 94 180 112 25 17 94 62 153 99 l108 68 35 -21
c36 -22 70 -28 59 -12 -3 6 4 19 16 30 12 11 19 26 16 34 -6 16 3 31 12 21 3
-3 6 -35 7 -72z m-26 37 c0 -5 -6 -9 -13 -9 -8 0 -14 6 -14 14 0 8 6 12 14 9
7 -3 13 -9 13 -14z"/>
<path d="M1417 7143 c-4 -3 31 -28 78 -55 47 -27 85 -53 85 -56 0 -4 -50 -37
-110 -74 l-109 -68 -36 21 -36 21 98 64 c107 70 115 84 17 30 -93 -51 -144
-85 -144 -95 0 -5 21 -21 46 -36 54 -32 53 -32 184 55 111 74 113 75 144 55
15 -10 23 -22 19 -26 -4 -4 -80 -50 -168 -103 -134 -79 -249 -149 -402 -246
-23 -14 -29 -12 -101 26 -42 22 -77 45 -79 51 -2 6 33 32 79 59 51 30 76 50
66 52 -9 2 -55 -20 -101 -48 -66 -39 -89 -48 -106 -42 -20 7 -9 16 81 69 57
33 114 70 128 83 25 21 25 21 2 17 -26 -6 -282 -158 -282 -168 0 -4 12 -9 28
-12 15 -3 80 -36 145 -72 l117 -65 153 96 c83 53 230 144 325 201 94 57 172
107 172 111 0 6 -272 162 -283 162 -2 0 -7 -3 -10 -7z"/>
<path d="M2790 7671 c0 -21 58 -75 134 -125 98 -64 120 -76 141 -76 17 0 136
55 190 88 17 10 67 39 113 66 45 26 82 50 82 52 0 2 -37 4 -83 4 -82 0 -83 0
-177 -56 -52 -31 -107 -65 -122 -75 l-27 -19 -45 31 c-62 41 -71 60 -45 93
l20 26 -66 0 c-56 0 -66 -3 -61 -15 3 -8 2 -15 -3 -15 -5 0 -14 7 -21 15 -14
17 -30 20 -30 6z"/>
<path d="M10786 7671 c5 -5 68 -42 139 -82 125 -69 133 -73 208 -77 42 -2 93
-1 111 2 51 10 186 120 186 152 0 10 -13 14 -43 14 -37 0 -46 -4 -58 -27 -17
-32 -120 -83 -167 -83 -18 0 -40 -5 -51 -11 -15 -10 -30 -5 -87 28 -119 70
-172 93 -211 93 -22 0 -33 -4 -27 -9z"/>
<path d="M11735 7670 c3 -5 8 -10 11 -10 2 0 4 5 4 10 0 6 -5 10 -11 10 -5 0
-7 -4 -4 -10z"/>
<path d="M12445 7659 c22 -11 47 -29 56 -39 16 -19 18 -18 43 20 l26 40 -82 0
-83 0 40 -21z"/>
<path d="M12895 7645 c-37 -29 -49 -33 -65 -25 -10 5 -23 10 -29 10 -33 0 7
-30 165 -124 l176 -105 46 24 c26 14 94 58 152 97 123 86 134 106 71 137 -60
31 -84 26 -34 -7 24 -15 43 -30 43 -34 0 -5 -252 -163 -282 -176 -8 -4 -268
148 -268 157 0 3 27 21 60 39 33 18 60 35 60 37 0 17 -56 -1 -95 -30z"/>
<path d="M13640 7627 c52 -29 170 -97 261 -150 91 -53 169 -97 172 -97 4 0 7
68 7 150 l0 150 -267 0 -268 0 95 -53z"/>
<path d="M13485 7617 c-4 -24 -4 -58 -2 -76 5 -31 3 -33 -51 -57 -31 -14 -90
-46 -130 -71 -61 -37 -71 -47 -61 -60 14 -16 15 -17 314 -184 121 -67 286
-160 368 -206 81 -45 149 -83 152 -83 3 0 5 37 3 81 l-3 82 -310 172 c-176 99
-311 180 -313 189 -2 9 1 16 6 16 6 0 63 -31 128 -68 176 -101 483 -272 489
-272 3 0 5 24 5 54 l0 55 -76 42 c-93 51 -186 113 -158 105 11 -3 65 -31 120
-61 54 -30 102 -55 106 -55 5 0 8 24 8 53 l0 52 -263 148 c-144 81 -276 157
-294 168 l-32 20 -6 -44z"/>
<path d="M12428 7431 c23 -20 31 -61 11 -61 -6 0 -8 -7 -5 -16 5 -14 1 -16
-31 -10 -132 22 -333 15 -398 -14 -37 -17 -116 -40 -135 -40 -32 0 -31 -15 5
-70 l35 -54 -22 -23 c-22 -24 -22 -24 -4 -76 20 -57 33 -76 107 -155 57 -61
36 -64 202 35 l107 65 0 107 0 106 50 -3 c42 -3 53 -9 71 -33 11 -16 26 -29
33 -29 20 0 80 -56 73 -68 -4 -5 4 -13 17 -16 13 -3 26 -15 29 -26 4 -16 0
-20 -20 -20 -14 0 -37 6 -51 14 -58 30 -82 39 -88 34 -3 -4 22 -21 55 -38 34
-18 61 -39 61 -46 0 -8 8 -14 18 -14 10 0 33 -11 52 -25 19 -14 38 -25 44 -25
15 0 605 -333 652 -369 20 -15 18 -17 -55 -61 -42 -26 -132 -82 -201 -125
l-124 -78 -41 23 c-22 12 -116 63 -210 112 -93 50 -199 107 -235 128 -91 53
-443 240 -446 237 -10 -9 -21 -154 -13 -168 5 -10 36 -34 68 -54 37 -22 58
-41 55 -49 -7 -18 41 -73 85 -97 20 -11 65 -38 101 -61 36 -22 79 -49 95 -58
17 -10 70 -41 119 -69 50 -28 100 -54 113 -57 13 -4 23 -9 23 -13 0 -4 19 -18
43 -30 23 -12 76 -42 117 -66 41 -25 116 -65 165 -91 50 -25 97 -52 105 -59 8
-7 40 -25 70 -40 30 -15 57 -30 60 -34 3 -3 25 -16 50 -28 25 -12 70 -36 100
-54 247 -139 318 -179 335 -185 11 -4 22 -11 25 -14 3 -4 37 -24 75 -44 39
-20 97 -52 130 -71 66 -37 160 -85 169 -85 3 0 6 64 6 143 l0 142 -328 179
c-180 99 -402 221 -493 272 -91 51 -192 106 -225 122 -104 52 -107 46 98 168
101 60 192 111 202 112 21 4 51 -9 113 -50 23 -15 45 -28 49 -28 3 0 29 -16
55 -35 27 -19 51 -35 54 -35 2 0 104 -61 227 -135 122 -74 228 -135 235 -135
9 0 13 20 13 73 l0 72 -58 34 c-31 18 -147 85 -257 149 -325 187 -431 265
-520 385 -76 100 -107 171 -113 254 -2 39 -2 84 2 98 9 37 26 31 177 -56 68
-39 225 -127 349 -196 124 -69 266 -150 317 -179 51 -30 95 -54 98 -54 4 0 5
12 3 27 -3 24 -20 37 -138 102 -74 41 -278 155 -453 254 -339 191 -351 196
-376 140 -7 -16 -14 -53 -16 -83 -4 -66 -14 -74 -101 -89 -106 -19 -221 4
-293 57 -19 14 -31 19 -26 11 22 -36 -50 31 -81 76 -29 41 -91 185 -99 228 -6
28 -14 38 -37 46 -45 16 -56 13 -30 -8z"/>
<path d="M12454 6952 c2 -4 27 -19 55 -32 28 -13 51 -26 51 -29 -1 -3 -61 -44
-135 -90 -74 -46 -132 -87 -130 -91 3 -5 65 -41 137 -81 73 -40 215 -119 316
-177 123 -70 187 -101 194 -94 6 6 -33 34 -119 82 -70 40 -139 79 -152 88 -24
14 -22 15 100 95 l124 80 50 -27 c181 -99 256 -137 267 -134 15 5 -264 168
-527 307 -190 101 -245 125 -231 103z m205 -116 c31 -18 89 -50 129 -71 39
-21 72 -40 72 -44 0 -6 -196 -138 -230 -155 -13 -6 -53 12 -154 70 -75 42
-133 80 -129 85 4 4 48 32 98 62 l89 54 61 -38 c60 -39 85 -47 85 -29 0 5 -27
24 -61 40 -50 26 -59 34 -49 46 17 20 25 18 89 -20z"/>
<path d="M145 6840 c-154 -90 -151 -87 -143 -95 6 -6 155 77 168 94 3 3 16 12
30 19 28 14 78 51 70 52 -3 0 -59 -31 -125 -70z"/>
<path d="M6877 6894 c-4 -4 -2 -13 4 -21 8 -9 8 -17 0 -26 -6 -8 -8 -17 -4
-20 3 -4 12 -2 20 4 9 9 17 8 27 0 11 -9 13 -4 13 29 0 34 -2 38 -17 30 -10
-6 -21 -5 -27 1 -5 5 -12 6 -16 3z"/>
<path d="M7591 6750 c1 -50 -1 -93 -4 -96 -3 -3 -25 7 -49 24 -51 34 -103 62
-118 62 -21 0 -9 -18 22 -31 18 -7 47 -26 65 -42 19 -16 36 -27 39 -24 3 3 14
-3 25 -14 10 -10 29 -19 40 -19 19 0 20 2 8 17 -10 12 -13 43 -12 115 1 61 -2
98 -8 98 -6 0 -9 -34 -8 -90z"/>
<path d="M13630 6836 c0 -3 140 -88 320 -193 131 -76 130 -76 130 -59 0 15
-137 99 -323 196 -107 57 -127 65 -127 56z"/>
<path d="M7652 6753 c3 -41 -7 -34 451 -275 76 -40 163 -94 192 -120 82 -71
145 -74 145 -8 0 33 -49 80 -83 80 -20 0 -176 80 -549 281 -81 43 -149 79
-153 79 -3 0 -5 -17 -3 -37z"/>
<path d="M6882 6698 c-31 -31 2 -108 46 -108 45 0 57 62 19 98 -26 25 -47 28
-65 10z m56 -56 c4 -24 -7 -29 -26 -10 -18 18 -15 40 6 36 9 -2 18 -13 20 -26z"/>
<path d="M5954 6691 c-106 -26 -174 -112 -174 -220 0 -74 34 -146 90 -193 57
-47 51 -73 -21 -113 -117 -63 -157 -123 -233 -347 -50 -149 -49 -161 29 -344
19 -45 35 -93 35 -108 0 -17 12 -39 31 -59 31 -30 32 -34 45 -181 8 -83 17
-245 20 -361 7 -259 7 -238 -1 -312 -9 -75 -6 -80 84 -132 130 -76 211 -76
231 0 6 21 14 38 18 37 16 -3 42 15 42 31 0 13 12 16 73 16 87 0 127 20 127
62 0 21 -18 44 -77 99 l-76 72 6 83 c21 278 28 492 24 742 -2 155 -6 290 -8
301 -3 15 7 22 46 36 72 25 147 64 170 90 13 14 20 37 20 66 1 36 7 51 34 78
21 22 31 40 28 51 -6 14 -10 14 -44 -1 -21 -9 -43 -18 -49 -20 -6 -3 -19 7
-28 21 -24 37 -79 57 -140 53 -45 -3 -52 0 -65 23 -13 23 -12 31 12 90 14 35
29 93 33 129 3 36 13 77 20 92 18 35 18 92 0 126 -19 37 -81 70 -163 87 -74
16 -92 17 -139 6z m251 -323 c-19 -112 -72 -198 -122 -198 -51 0 -156 79 -189
143 -19 35 -9 54 16 32 27 -24 54 -15 60 20 6 32 10 34 80 22 31 -5 59 -3 90
7 71 22 73 22 65 -26z m-177 -219 c23 -11 42 -25 42 -32 0 -7 3 -23 7 -36 l6
-25 -34 24 c-52 35 -109 92 -109 108 0 12 4 11 23 -2 12 -9 41 -26 65 -37z
m-11 -87 c48 -30 50 -34 28 -52 -13 -11 -21 -8 -46 16 -29 27 -89 107 -89 118
0 3 15 -9 33 -25 17 -17 51 -42 74 -57z m153 68 c8 -15 7 -26 -6 -45 -16 -25
-16 -26 20 -60 l37 -35 -28 -37 c-24 -31 -28 -45 -27 -92 1 -31 7 -84 15 -118
14 -70 6 -103 -31 -123 -19 -10 -21 -9 -16 7 6 22 8 149 2 183 -2 14 -5 41 -7
60 -3 56 -16 -81 -18 -192 l-1 -96 -43 -21 c-47 -23 -137 -28 -181 -11 -26 9
-26 10 -26 127 0 65 -5 125 -11 133 -7 10 -9 -22 -7 -108 2 -67 0 -122 -4
-122 -14 0 -27 37 -38 103 -10 62 -9 71 16 129 35 83 42 154 19 201 -17 36
-44 54 -30 20 4 -10 10 -43 12 -73 4 -50 0 -64 -42 -150 -55 -110 -59 -152
-25 -265 l20 -70 -21 -17 c-36 -30 -49 -21 -85 56 -60 132 -62 153 -19 284 50
155 86 233 129 275 33 33 94 73 100 65 2 -2 20 -29 41 -61 39 -59 91 -107 117
-107 8 0 32 15 53 34 33 30 37 38 32 68 -3 18 -8 40 -12 50 -4 11 -1 18 12 21
34 9 42 7 53 -13z m195 -50 c16 -16 27 -31 24 -33 -21 -17 -83 -47 -96 -47
-24 0 -114 61 -110 74 7 20 51 36 103 36 43 0 54 -4 79 -30z m60 -111 c10 -15
-1 -23 -20 -15 -9 3 -13 10 -10 16 8 13 22 13 30 -1z m-136 -15 c3 -3 -1 -10
-7 -16 -21 -21 -13 -36 23 -42 19 -4 37 -11 40 -15 5 -10 -78 -48 -125 -57
-29 -6 -30 -5 -30 30 0 62 39 121 74 110 12 -4 23 -8 25 -10z m119 -42 c5 -15
-20 -15 -53 0 -25 11 -30 19 -19 31 9 9 67 -16 72 -31z m-605 -518 c8 -46 -7
-74 -38 -74 -27 0 -55 33 -55 66 0 15 10 25 38 36 20 8 40 13 43 12 4 -2 9
-20 12 -40z m231 -497 c0 -73 -4 -189 -8 -259 -7 -119 -6 -128 12 -144 11 -9
18 -23 15 -30 -3 -8 0 -14 6 -14 6 0 11 5 11 10 0 6 4 10 9 10 5 0 8 -6 7 -14
-3 -19 -26 -46 -40 -46 -6 0 -4 5 4 11 12 9 11 10 -8 6 -17 -4 -31 5 -58 36
l-36 42 5 85 c3 47 18 169 33 273 33 223 49 234 48 34z"/>
<path d="M6540 6651 l0 -52 -76 42 c-50 28 -79 38 -85 32 -7 -7 18 -26 76 -58
l86 -47 40 27 c44 31 51 50 15 41 -22 -5 -25 -2 -28 26 -5 55 -28 46 -28 -11z"/>
<path d="M7480 6612 c0 -11 355 -210 390 -219 44 -12 16 14 -58 53 -255 136
-332 174 -332 166z"/>
<path d="M7640 6597 c0 -7 14 -18 30 -24 34 -13 42 1 13 23 -23 17 -43 18 -43
1z"/>
<path d="M7740 6545 c7 -8 17 -12 22 -9 6 4 5 10 -3 15 -22 14 -33 10 -19 -6z"/>
<path d="M12903 6525 c-28 -19 -54 -39 -57 -44 -9 -14 126 -91 144 -81 8 5 37
29 65 53 l50 44 -64 32 c-35 17 -68 31 -75 31 -6 0 -35 -16 -63 -35z m110 -8
c34 -21 37 -25 23 -36 -14 -12 -22 -9 -56 14 -37 26 -44 45 -17 45 7 0 29 -11
50 -23z m-45 -43 c44 -31 -7 -48 -53 -18 -14 9 -22 20 -19 25 8 14 47 10 72
-7z"/>
<path d="M7798 6509 c18 -12 36 -18 40 -14 10 10 -28 35 -52 35 -17 0 -15 -4
12 -21z"/>
<path d="M5150 6357 c-41 -24 -124 -72 -185 -107 -60 -35 -211 -122 -335 -193
-124 -72 -306 -177 -405 -235 -99 -58 -232 -135 -295 -172 -123 -72 -166 -114
-181 -176 -5 -22 -9 -467 -9 -997 0 -802 2 -963 14 -991 9 -22 30 -44 60 -61
25 -15 46 -33 46 -40 0 -19 83 -38 142 -33 70 6 359 149 633 314 110 67 290
174 400 239 409 241 455 269 452 279 -2 6 -29 27 -60 49 -52 35 -55 40 -47 63
6 16 10 410 10 1012 0 960 -1 988 -20 1016 -23 37 -86 76 -120 76 -14 0 -59
-19 -100 -43z m150 -2 c23 -12 23 -14 7 -21 -11 -4 -82 -44 -160 -89 -141 -83
-141 -83 -165 -65 -13 10 -23 22 -23 26 -1 13 266 163 291 163 14 0 36 -6 50
-14z m60 -1054 c0 -878 -2 -999 -15 -1018 -16 -22 -234 -156 -760 -465 -154
-91 -370 -218 -479 -283 -155 -91 -203 -116 -215 -108 -14 9 -16 109 -19 997
-2 967 -2 987 18 1025 23 46 37 56 190 145 l114 66 14 -25 c7 -14 21 -25 31
-25 11 0 142 71 293 159 503 291 478 274 478 330 1 35 3 38 112 101 189 110
210 121 225 108 11 -8 13 -197 13 -1007z m-396 849 c-5 -4 -76 -47 -159 -95
-82 -48 -244 -142 -360 -210 -289 -169 -270 -160 -290 -132 -19 28 -36 16 235
172 118 68 284 164 369 213 153 90 155 90 184 75 16 -8 25 -18 21 -23z m-831
-454 l25 -24 -115 -68 c-132 -77 -177 -117 -194 -174 -7 -22 -14 -40 -16 -40
-18 0 -63 34 -63 48 1 26 35 95 56 114 16 14 273 167 281 168 1 0 13 -11 26
-24z m-315 -324 l22 -17 -2 -955 -3 -955 -32 32 -33 31 0 941 c0 746 3 941 13
941 6 0 22 -8 35 -18z"/>
<path d="M4640 5671 c-224 -127 -261 -157 -247 -194 5 -14 47 7 234 115 125
72 234 135 241 141 13 10 17 67 5 67 -5 0 -109 -58 -233 -129z"/>
<path d="M4855 5389 c-181 -105 -358 -207 -392 -227 -35 -20 -63 -42 -63 -49
0 -7 114 53 253 133 138 80 318 184 400 231 128 73 168 103 140 103 -5 0 -156
-86 -338 -191z"/>
<path d="M4965 5382 c-121 -70 -293 -170 -382 -221 -149 -85 -224 -138 -168
-117 11 4 119 64 240 134 121 69 292 167 379 218 139 79 190 116 159 113 -4 0
-107 -57 -228 -127z"/>
<path d="M4201 5464 l-31 -26 0 -149 c0 -93 -4 -149 -10 -149 -6 0 -10 37 -10
90 0 50 -3 90 -7 90 -5 0 -22 -9 -40 -20 -32 -19 -32 -20 -35 -111 -2 -63 -7
-94 -15 -97 -10 -3 -13 12 -13 52 0 31 -3 56 -7 56 -5 0 -23 -9 -40 -20 -32
-19 -33 -21 -33 -90 l0 -71 73 39 c39 21 107 58 150 82 l77 43 0 154 c0 170
-2 175 -59 127z m29 -143 c0 -105 -3 -130 -15 -135 -13 -5 -15 13 -15 123 0
70 3 131 7 134 19 19 23 -4 23 -122z m-112 -118 c-2 -50 -7 -78 -15 -81 -10
-3 -13 14 -13 61 0 69 6 97 21 97 6 0 9 -34 7 -77z m-117 -136 c-8 -8 -11 4
-11 39 0 66 14 80 18 19 2 -26 -2 -53 -7 -58z"/>
<path d="M5112 5279 c-21 -21 -32 -41 -32 -60 0 -16 0 -31 0 -34 0 -3 3 -6 7
-7 5 -2 14 15 21 37 7 22 22 49 32 60 19 19 20 19 20 1 0 -11 -7 -28 -17 -38
-14 -16 -14 -18 -1 -18 24 0 40 26 36 57 -4 39 -28 39 -66 2z"/>
<path d="M4135 5025 c-60 -35 -127 -73 -147 -85 -38 -20 -38 -21 -38 -85 0
-37 4 -65 10 -65 10 0 290 156 302 168 3 4 8 34 10 67 2 47 0 60 -12 62 -8 1
-64 -27 -125 -62z m108 -46 c-4 -4 -64 -39 -133 -78 l-125 -69 -3 30 c-2 17 1
36 8 42 6 6 66 43 133 82 l122 70 3 -34 c2 -19 0 -38 -5 -43z"/>
<path d="M4995 4871 c-148 -87 -342 -201 -429 -252 -88 -52 -162 -100 -164
-107 -3 -10 4 -9 29 3 30 16 364 210 670 391 58 34 125 72 147 83 41 21 55 41
30 41 -7 0 -134 -72 -283 -159z"/>
<path d="M4492 4969 c-50 -32 -62 -46 -63 -67 0 -15 -2 -46 -4 -69 -2 -25 1
-43 7 -43 14 0 131 70 140 84 14 20 9 136 -5 136 -7 0 -40 -18 -75 -41z m44
-85 c-3 -7 -23 -22 -46 -34 -31 -16 -40 -17 -40 -6 0 7 11 21 25 30 14 9 25
24 25 34 0 10 8 29 18 42 l17 25 3 -39 c2 -21 1 -44 -2 -52z m-57 25 c-22 -14
-33 -10 -19 6 7 8 17 12 22 9 6 -4 5 -10 -3 -15z"/>
<path d="M4688 4974 c-38 -20 -36 -28 2 -9 17 9 30 18 30 20 0 7 -1 6 -32 -11z"/>
<path d="M4105 4761 l-150 -87 -3 -112 c-2 -91 0 -112 11 -112 17 0 273 144
300 167 15 14 17 31 15 122 -2 59 -7 105 -13 107 -5 1 -77 -37 -160 -85z m145
-34 l0 -84 -128 -76 c-71 -43 -132 -77 -135 -77 -4 0 -7 38 -7 84 l0 84 133
75 c72 42 133 76 135 77 1 0 2 -38 2 -83z"/>
<path d="M4064 4666 c-8 -22 3 -33 18 -18 9 9 9 15 0 24 -9 9 -13 7 -18 -6z"/>
<path d="M4027 4654 c-4 -4 -7 -14 -7 -23 0 -11 3 -12 11 -4 6 6 10 16 7 23
-2 6 -7 8 -11 4z"/>
<path d="M4033 4590 c-13 -5 -23 -12 -23 -15 0 -10 27 -5 46 10 21 16 11 18
-23 5z"/>
<path d="M4675 4825 c-22 -13 -37 -25 -33 -25 9 0 78 41 78 46 0 6 -3 5 -45
-21z"/>
<path d="M5205 4645 c-80 -49 -93 -62 -107 -107 -9 -31 -15 -37 -30 -32 -48
15 -87 -68 -88 -183 0 -46 3 -83 8 -82 4 0 67 35 141 78 169 98 173 103 169
251 -4 124 -6 127 -93 75z m73 -90 c-3 -74 -8 -100 -23 -121 -11 -14 -72 -55
-135 -90 l-115 -64 -3 42 c-4 57 4 96 29 137 19 32 21 33 40 15 23 -21 21 -22
45 45 17 48 26 59 78 93 88 56 89 55 84 -57z"/>
<path d="M5180 4553 c-30 -20 -49 -38 -42 -41 6 -2 29 10 49 27 21 17 43 31
50 31 7 0 13 5 13 10 0 16 -11 11 -70 -27z"/>
<path d="M5220 4460 c-9 -6 -10 -10 -3 -10 6 0 15 5 18 10 8 12 4 12 -15 0z"/>
<path d="M5051 4404 c-23 -30 -26 -40 -11 -49 17 -11 50 5 50 25 0 10 9 20 21
23 27 7 15 27 -16 27 -14 0 -32 -11 -44 -26z"/>
<path d="M4790 4495 l-55 -33 -5 -248 c-4 -185 -8 -248 -17 -252 -10 -3 -13
31 -13 148 0 98 -4 149 -10 145 -5 -3 -10 -28 -10 -55 0 -48 -1 -50 -47 -77
-27 -15 -51 -32 -55 -37 -4 -6 -5 -52 -3 -103 3 -71 1 -94 -11 -104 -12 -10
-14 30 -14 295 0 168 -3 306 -7 306 -5 0 -30 -13 -58 -28 l-50 -27 -5 -310
c-3 -171 -9 -316 -13 -322 -23 -35 -27 1 -27 222 0 129 -3 235 -6 235 -4 0
-31 -14 -60 -31 l-54 -30 0 -244 c0 -207 -2 -244 -15 -249 -13 -5 -15 16 -15
154 l0 160 -60 -30 -60 -30 0 -163 c0 -158 -6 -197 -29 -183 -8 5 -11 90 -11
277 0 148 -3 269 -6 269 -3 0 -30 -15 -60 -32 l-54 -33 0 -270 c0 -225 -3
-274 -15 -292 -26 -37 -1 -34 76 10 309 178 977 572 988 583 33 31 -2 23 -66
-15 -38 -23 -72 -41 -76 -41 -4 0 -7 106 -7 235 0 129 -3 235 -7 234 -5 0 -33
-16 -63 -34z"/>
<path d="M4098 4413 l-148 -85 0 -64 c0 -45 4 -64 13 -64 6 1 77 38 157 84
l145 83 5 56 c6 64 3 77 -13 76 -7 0 -78 -39 -159 -86z m149 -17 c-4 -10 -216
-136 -259 -154 -5 -2 -8 14 -8 35 l0 38 133 76 132 75 3 -29 c2 -16 1 -34 -1
-41z"/>
<path d="M7051 6376 c-48 -25 -59 -42 -61 -96 -1 -29 -8 -40 -41 -63 -177
-122 -58 -521 192 -648 101 -51 184 -35 284 54 59 51 75 88 75 172 0 112 -59
240 -152 333 -47 47 -47 47 -50 121 l-3 75 -70 38 c-81 44 -113 46 -174 14z
m136 -23 c29 -14 53 -30 53 -35 0 -7 -114 45 -129 58 -15 14 32 0 76 -23z
m-123 -33 c-6 -37 -5 -40 17 -40 19 0 21 2 9 10 -12 8 -11 12 8 31 23 21 24
21 63 4 21 -10 39 -22 39 -28 0 -5 -10 -3 -22 5 -32 20 -58 29 -58 19 0 -5 14
-14 30 -21 17 -7 34 -19 39 -27 6 -12 13 -12 42 6 19 12 37 21 42 21 4 0 7
-18 7 -40 0 -32 -5 -43 -27 -57 -16 -9 -37 -25 -49 -35 -20 -18 -22 -18 -75 7
-34 16 -72 25 -104 25 -39 1 -46 3 -32 11 12 7 17 23 17 55 0 36 5 50 26 69
15 14 29 25 31 25 2 0 0 -18 -3 -40z m51 -169 c81 -36 194 -170 235 -278 42
-111 35 -205 -20 -266 -25 -29 -34 -32 -82 -31 -63 1 -121 27 -184 86 -164
151 -224 429 -106 492 37 21 109 19 157 -3z m222 -49 c29 -34 53 -66 53 -70 0
-4 -14 -16 -32 -26 l-31 -19 -21 29 c-11 16 -39 49 -60 72 l-40 44 24 19 c14
10 31 18 39 16 8 -1 39 -30 68 -65z m112 -185 c38 -111 24 -212 -35 -268 l-26
-24 9 30 c16 60 8 148 -21 228 -16 43 -27 79 -25 81 59 45 69 40 98 -47z"/>
<path d="M7040 6091 c0 -11 39 -25 47 -18 3 3 2 10 -2 16 -8 13 -45 15 -45 2z"/>
<path d="M7150 6040 c0 -28 -2 -30 -39 -30 -31 0 -41 -4 -46 -20 -12 -37 5
-79 46 -112 33 -27 39 -37 39 -70 0 -45 -19 -50 -48 -13 -11 14 -25 25 -31 25
-33 0 14 -73 63 -99 16 -9 26 -23 26 -37 0 -13 9 -28 19 -34 38 -20 131 -7
131 19 0 5 -19 2 -43 -6 -32 -10 -50 -11 -70 -4 -36 14 -36 41 1 41 38 0 52
17 52 61 0 45 -31 86 -94 123 -44 26 -76 79 -55 92 12 7 87 -36 113 -65 20
-22 46 -28 46 -11 0 5 -18 28 -40 51 -22 23 -40 49 -40 58 0 27 -12 61 -21 61
-5 0 -9 -13 -9 -30z m54 -232 c23 -32 21 -68 -3 -68 -21 0 -31 19 -31 61 0 35
13 37 34 7z"/>
<path d="M8013 6364 c-23 -12 -36 -27 -43 -53 -13 -43 -10 -1517 3 -1542 7
-13 1 -17 -30 -21 -45 -7 -492 -273 -535 -319 -23 -24 -28 -38 -28 -82 0 -96
0 -96 310 -260 41 -22 80 -43 85 -47 6 -4 64 -36 130 -70 106 -55 216 -114
460 -246 39 -20 95 -51 125 -67 199 -107 366 -187 404 -192 25 -4 79 -3 120 3
69 9 87 17 223 99 81 49 210 125 285 169 75 43 137 82 138 86 0 3 -20 16 -44
28 -25 12 -56 30 -70 41 l-25 20 32 29 32 28 3 752 c2 508 -1 764 -8 791 -17
61 -63 97 -261 201 -101 53 -368 194 -594 314 -544 287 -671 354 -676 354 -2
0 -19 -8 -36 -16z m126 -205 c288 -151 1238 -653 1279 -676 24 -14 47 -36 53
-49 5 -15 9 -281 9 -651 l0 -625 -157 82 c-157 82 -565 301 -1065 571 l-268
144 0 638 c0 350 3 637 7 637 3 0 67 -32 142 -71z"/>
<path d="M8109 5991 c-38 -30 -52 -71 -47 -143 6 -88 44 -165 117 -239 71 -71
127 -98 198 -99 122 0 168 123 97 263 -40 81 -97 149 -158 192 -48 33 -67 40
-119 43 -51 3 -67 0 -88 -17z m195 -50 c25 -17 58 -48 73 -68 24 -31 28 -46
28 -99 0 -67 -17 -97 -64 -115 -21 -8 -31 -2 -82 46 -32 31 -63 53 -69 50 -34
-21 -56 178 -23 210 24 24 81 14 137 -24z m-181 -33 c-4 -48 0 -76 16 -117 15
-40 18 -58 10 -68 -19 -23 -26 -15 -49 57 -16 50 -20 80 -15 107 6 34 29 83
39 83 2 0 1 -28 -1 -62z m354 -248 c3 -38 0 -61 -10 -74 -17 -23 -26 -18 -51
29 -18 33 -19 38 -4 63 9 15 20 45 24 67 l7 40 15 -35 c8 -19 17 -60 19 -90z
m-216 1 c64 -66 95 -109 85 -118 -11 -11 -104 39 -146 79 -43 42 -51 71 -22
87 25 15 22 16 83 -48z m133 -55 c34 -73 8 -90 -37 -24 -23 32 -26 43 -15 49
24 15 35 10 52 -25z"/>
<path d="M8207 5913 c-24 -23 13 -103 47 -103 7 0 22 -9 35 -21 28 -26 51 -18
51 18 0 36 -21 66 -64 92 -34 21 -57 26 -69 14z m50 -42 c3 -12 11 -17 22 -14
11 3 24 -5 35 -21 20 -31 14 -32 -44 -3 -25 12 -46 30 -48 40 -5 24 28 22 35
-2z"/>
<path d="M8080 5521 c0 -33 3 -67 6 -76 4 -9 33 -29 65 -46 l59 -29 0 75 0 75
-52 30 c-74 42 -78 40 -78 -29z m78 9 c32 -19 42 -45 21 -52 -7 -2 -7 -12 2
-31 16 -36 8 -41 -34 -21 -30 14 -36 23 -42 60 -6 42 -2 64 13 64 4 0 22 -9
40 -20z"/>
<path d="M8272 5413 l3 -67 130 -68 c72 -37 136 -68 143 -68 8 0 12 19 12 64
l0 63 -139 72 c-76 39 -142 71 -145 71 -4 0 -6 -30 -4 -67z m81 -50 c29 -14
47 -28 40 -30 -13 -5 -88 31 -98 47 -9 15 1 12 58 -17z"/>
<path d="M8630 5076 c0 -251 4 -386 10 -386 6 0 10 133 10 379 0 243 -4 382
-10 386 -7 4 -10 -125 -10 -379z"/>
<path d="M8755 5315 c-11 -84 -3 -101 65 -135 33 -16 62 -30 65 -30 3 0 5 35
3 77 l-3 77 -55 32 c-30 18 -58 33 -62 34 -4 0 -10 -25 -13 -55z m68 -1 c42
-22 47 -31 47 -81 0 -48 -4 -50 -55 -26 -34 16 -35 19 -35 70 0 29 2 53 5 53
4 0 20 -7 38 -16z"/>
<path d="M8815 5259 c-10 -15 3 -25 16 -12 7 7 7 13 1 17 -6 3 -14 1 -17 -5z"/>
<path d="M8990 5221 c0 -5 75 -49 168 -97 92 -47 182 -95 200 -106 24 -15 32
-16 32 -6 0 11 -374 218 -394 218 -3 0 -6 -4 -6 -9z"/>
<path d="M8762 5159 c2 -8 74 -50 159 -94 85 -44 225 -117 312 -162 86 -45
157 -77 157 -70 0 7 -33 29 -73 50 -394 206 -559 288 -555 276z"/>
<path d="M8990 5131 c0 -6 82 -53 183 -105 205 -107 217 -112 217 -98 0 8
-381 212 -396 212 -2 0 -4 -4 -4 -9z"/>
<path d="M8130 5073 c0 -30 6 -41 33 -62 14 -11 20 -11 32 -1 21 17 19 46 -5
70 -30 30 -60 26 -60 -7z m50 -8 c15 -19 6 -47 -14 -39 -17 6 -29 32 -20 45 8
13 20 11 34 -6z"/>
<path d="M8752 5070 c3 -11 630 -341 636 -335 2 2 1 8 -2 14 -7 10 -617 331
-630 331 -4 0 -6 -5 -4 -10z"/>
<path d="M8760 4722 c0 -14 28 -30 325 -187 143 -76 264 -141 269 -146 13 -12
36 -12 36 0 0 5 -102 63 -227 129 -126 66 -267 141 -315 167 -49 26 -88 42
-88 37z"/>
<path d="M8760 4622 c0 -8 611 -332 625 -332 28 0 -27 34 -202 126 -115 59
-253 132 -307 161 -101 54 -116 60 -116 45z"/>
<path d="M13205 6303 c22 -22 853 -523 867 -523 5 0 8 6 6 13 -5 14 -279 179
-468 282 -69 37 -186 105 -260 149 -138 83 -163 96 -145 79z"/>
<path d="M7562 6223 c-21 -23 -21 -27 -7 -43 8 -9 12 -20 9 -23 -4 -4 0 -9 9
-13 9 -3 24 1 33 10 14 14 14 19 2 33 -7 9 -12 24 -10 34 5 28 -12 29 -36 2z"/>
<path d="M6530 5767 c0 -17 247 -150 265 -143 8 3 15 15 15 26 0 11 7 20 15
20 8 0 15 7 15 15 0 8 -7 16 -15 17 -8 0 -20 1 -27 2 -6 1 -13 -10 -15 -23 -2
-14 -4 -26 -6 -27 -1 -1 -47 23 -102 53 -124 68 -145 77 -145 60z"/>
<path d="M6606 5591 c-7 -11 3 -19 96 -69 85 -46 99 -49 118 -27 10 12 10 19
1 28 -9 9 -14 9 -21 -3 -7 -12 -24 -6 -99 33 -49 26 -92 43 -95 38z"/>
<path d="M7360 5464 c-145 -77 -130 -52 -130 -227 0 -108 4 -158 13 -169 15
-19 115 -79 188 -113 33 -15 72 -25 100 -25 53 0 132 36 174 80 l29 30 4 160
c3 133 1 165 -11 184 -22 32 -206 126 -249 126 -20 0 -67 -18 -118 -46z m238
-26 c39 -22 72 -41 72 -43 0 -2 -32 -21 -70 -41 -39 -20 -69 -39 -66 -41 2 -2
36 12 74 33 66 34 102 39 102 14 0 -12 -53 -46 -139 -89 -45 -23 -70 -30 -89
-26 -35 8 -215 107 -219 120 -3 10 74 59 167 107 44 23 73 17 168 -34z m-216
-162 l117 -59 43 17 c24 10 59 28 78 40 19 12 47 31 63 40 l27 18 0 -118 0
-119 -104 -57 c-56 -32 -110 -58 -120 -58 -22 0 -212 96 -222 112 -11 17 -17
251 -7 246 4 -2 61 -30 125 -62z"/>
<path d="M7598 5204 c-3 -5 -2 -18 2 -28 5 -16 8 -17 12 -4 7 16 -7 45 -14 32z"/>
<path d="M6987 5413 c-14 -13 -6 -70 11 -86 52 -47 101 24 52 73 -20 20 -50
26 -63 13z"/>
<path d="M9954 5381 c-121 -55 -162 -152 -94 -226 12 -14 20 -44 25 -98 6 -73
5 -79 -19 -108 -35 -41 -49 -94 -97 -379 -57 -337 -55 -311 -24 -348 28 -33
70 -43 92 -21 7 7 12 -3 17 -38 4 -26 19 -109 32 -183 25 -136 64 -389 64
-415 0 -7 -24 -30 -52 -51 -114 -81 -127 -103 -83 -144 31 -29 86 -25 170 14
32 14 60 25 61 23 2 -2 -23 -34 -56 -71 -60 -67 -71 -94 -47 -115 31 -25 74
-24 134 3 95 44 163 89 163 108 0 10 -4 18 -8 18 -5 0 -14 19 -21 41 -14 47
-14 46 36 389 27 184 40 250 53 265 29 33 140 281 146 327 6 45 -24 233 -51
325 -9 29 -31 72 -49 96 l-33 43 23 21 c50 44 39 106 -26 150 -30 21 -39 33
-34 48 22 78 24 101 14 154 -13 75 -53 128 -119 163 -65 34 -153 38 -217 9z
m149 -285 c41 -65 53 -73 77 -51 15 14 23 16 31 8 13 -13 -30 -63 -54 -63 -8
0 -20 -14 -27 -31 -26 -61 -126 -92 -164 -50 -21 23 -41 87 -50 163 l-7 57 53
4 c121 8 111 11 141 -37z m-184 -174 c7 -14 1 -37 -24 -93 -19 -41 -35 -81
-35 -89 0 -9 20 -24 46 -35 l46 -20 -7 -75 c-4 -41 -8 -86 -9 -100 0 -14 -5
-24 -11 -23 -14 3 -64 123 -65 156 0 15 -5 27 -11 27 -7 0 -9 -15 -6 -42 18
-137 19 -160 7 -207 -7 -28 -14 -51 -16 -51 -1 0 -15 5 -29 12 -33 15 -33 26
10 266 39 215 47 247 72 274 20 22 20 22 32 0z m187 -97 c-23 -51 -28 -56 -53
-53 -25 3 -28 7 -28 41 0 38 2 39 50 56 28 9 52 16 54 15 1 -2 -9 -28 -23 -59z
m94 29 c0 -14 -59 -213 -66 -222 -4 -6 -144 68 -144 76 1 24 23 37 62 37 42 0
44 2 69 51 14 29 29 61 32 74 5 18 9 20 26 10 12 -6 21 -18 21 -26z m-205 -63
c-5 -82 -15 -92 -63 -66 -42 23 -43 37 -12 110 18 43 19 44 49 32 30 -11 30
-12 26 -76z m368 -101 c10 -30 27 -109 39 -177 l21 -123 -23 -63 c-12 -34 -33
-82 -47 -106 -23 -40 -28 -43 -56 -37 -17 4 -35 10 -39 14 -4 4 9 45 28 91 36
82 36 85 24 140 -16 73 -58 202 -72 219 -21 25 -28 -4 -11 -46 15 -40 15 -46
0 -96 -9 -29 -28 -63 -41 -75 l-24 -23 -7 21 c-15 49 38 332 77 404 10 20 14
18 62 -34 35 -38 57 -73 69 -109z m-308 -55 c87 -49 90 -53 78 -123 -5 -32 -6
-71 -2 -87 l8 -28 -53 6 c-85 9 -112 27 -121 84 -14 91 -6 183 16 183 6 0 39
-16 74 -35z m221 -200 c7 -49 -1 -99 -15 -91 -14 9 -23 73 -15 111 8 45 21 36
30 -20z m-447 -101 c8 -6 -42 -94 -54 -94 -25 0 -33 57 -15 105 10 27 14 26
69 -11z m463 -186 l27 -10 -19 -38 c-22 -43 -43 -55 -71 -40 -22 12 -23 19 -7
72 9 29 15 37 27 32 9 -3 28 -10 43 -16z m-328 -654 c8 -22 8 -22 -13 -34 -11
-5 -27 -7 -36 -4 -14 6 -13 9 6 30 26 28 35 30 43 8z m-45 -76 l23 -18 -27
-10 c-36 -14 -58 -13 -81 5 -19 15 -19 15 4 35 25 20 42 18 81 -12z m71 12
c-39 -20 -50 -19 -30 5 7 8 24 15 39 15 25 -1 25 -1 -9 -20z m111 -50 c23 -13
24 -28 2 -52 -16 -17 -53 -24 -66 -12 -5 5 33 74 41 74 2 0 12 -5 23 -10z m89
-20 c0 -58 -172 -148 -217 -114 -17 12 -17 14 3 35 20 19 25 20 57 10 44 -15
63 -6 107 49 35 44 50 50 50 20z"/>
<path d="M7046 5012 c-2 -4 83 -54 190 -112 107 -58 193 -108 191 -112 -3 -11
-258 -158 -274 -158 -7 0 -97 45 -200 100 -102 54 -190 97 -196 93 -5 -3 -5
-9 0 -13 17 -17 389 -210 403 -210 9 0 72 33 140 74 l125 75 3 -30 c2 -17 -2
-36 -8 -44 -11 -13 -164 -107 -228 -139 l-32 -17 -190 102 c-105 56 -193 99
-197 96 -12 -13 23 -39 136 -101 208 -114 262 -138 292 -132 22 4 153 75 248
135 17 10 16 168 -1 188 -10 12 -379 213 -391 213 -3 0 -8 -3 -11 -8z"/>
<path d="M6399 4848 c-5 -23 -5 -69 1 -79 7 -10 11 -10 24 0 11 9 16 10 16 2
0 -6 6 -11 14 -11 9 0 13 13 13 41 0 29 -3 39 -13 35 -7 -3 -16 -1 -19 4 -5 9
-34 14 -36 8z"/>
<path d="M6685 4426 c-74 -41 -758 -450 -840 -503 l-60 -38 -3 -124 c-2 -117
-1 -125 20 -149 22 -24 78 -63 128 -90 14 -7 64 -36 111 -63 48 -27 89 -49 93
-49 3 0 39 -20 79 -44 39 -23 137 -77 217 -118 80 -42 170 -89 200 -105 246
-135 539 -290 602 -318 75 -34 152 -42 210 -23 24 9 175 93 334 189 159 95
330 196 379 225 172 100 199 131 159 175 -15 17 -19 43 -22 145 l-4 125 -32
23 c-17 13 -197 113 -401 221 -203 109 -482 259 -620 333 -471 255 -445 247
-550 188z m394 -135 c242 -131 578 -312 971 -521 189 -101 210 -114 210 -140
0 -16 -148 -113 -173 -113 -11 0 -401 203 -718 374 -69 37 -265 139 -435 227
-170 87 -324 168 -342 179 l-33 20 48 31 c88 56 146 82 181 82 26 0 101 -36
291 -139z m-346 -97 c111 -59 294 -155 407 -213 307 -161 795 -418 862 -455
44 -25 55 -36 46 -43 -7 -5 -164 -101 -350 -211 -270 -163 -343 -202 -372
-202 -28 0 -150 61 -538 267 -277 147 -606 321 -733 388 -173 90 -230 125
-230 138 0 14 61 55 220 149 121 72 279 166 350 209 72 43 132 78 133 78 2 1
95 -47 205 -105z m-830 -420 c101 -51 1024 -540 1207 -639 189 -103 212 -109
278 -76 20 10 225 132 455 270 230 138 420 251 423 251 2 0 4 -15 4 -34 0 -26
-7 -39 -27 -54 -94 -66 -872 -523 -900 -528 -41 -8 -53 -2 -838 418 -308 165
-590 316 -627 336 -62 33 -77 51 -78 90 0 17 0 17 103 -34z m-77 -53 c5 -5
230 -128 499 -272 1071 -573 975 -525 1034 -509 20 5 231 127 470 270 239 143
437 257 440 255 2 -3 0 -22 -5 -42 -9 -35 -21 -44 -284 -203 -151 -91 -351
-211 -444 -268 -105 -64 -178 -102 -196 -102 -44 0 -82 17 -319 145 -124 67
-440 236 -701 375 -261 140 -485 265 -497 277 -14 13 -23 34 -23 53 0 31 8 37
26 21z"/>
<path d="M6712 4325 c-28 -20 -52 -40 -52 -46 0 -5 29 -24 65 -41 l65 -30 65
42 c36 23 65 45 65 49 0 11 -109 61 -133 61 -12 0 -46 -16 -75 -35z m119 -5
c45 -24 44 -32 -12 -60 l-39 -20 -41 20 c-23 12 -38 24 -35 27 6 7 79 52 84
53 1 0 21 -9 43 -20z"/>
<path d="M6913 4224 c-35 -20 -63 -40 -63 -45 0 -5 28 -23 62 -40 58 -29 63
-30 93 -16 17 8 45 27 63 42 38 32 33 44 -29 76 -50 25 -53 24 -126 -17z m120
-10 l31 -17 -29 -24 c-17 -13 -40 -26 -51 -29 -22 -6 -84 20 -84 34 0 9 70 49
88 51 7 1 27 -6 45 -15z"/>
<path d="M6305 4020 l-20 -9 20 -1 c11 0 29 -7 39 -15 23 -17 56 -20 56 -5 0
6 7 10 15 10 8 0 15 5 15 10 0 14 -27 13 -32 -1 -3 -8 -14 -7 -35 5 -18 9 -33
16 -35 15 -2 0 -12 -4 -23 -9z"/>
<path d="M6286 3987 c5 -14 60 -38 68 -29 6 6 -49 42 -64 42 -5 0 -7 -6 -4
-13z"/>
<path d="M6240 3972 c0 -14 35 -42 52 -42 29 0 28 13 -2 32 -33 20 -50 23 -50
10z"/>
<path d="M6170 3940 c0 -14 55 -40 82 -40 23 1 23 1 3 16 -11 8 -18 17 -15 21
3 3 -12 7 -32 9 -21 2 -38 -1 -38 -6z"/>
<path d="M7020 3864 c-69 -42 -215 -128 -324 -192 -110 -64 -194 -118 -187
-120 13 -4 144 69 456 255 196 117 220 133 195 133 -8 -1 -71 -35 -140 -76z"/>
<path d="M7250 3766 c25 -22 540 -289 547 -282 9 8 28 -3 -269 154 -251 133
-314 162 -278 128z"/>
<path d="M6530 3715 c-11 -13 -10 -14 4 -9 9 3 16 10 16 15 0 13 -6 11 -20 -6z"/>
<path d="M7161 3726 c2 -2 42 -24 89 -49 353 -187 473 -247 478 -243 3 3 3 8
1 10 -15 14 -543 286 -556 286 -9 0 -14 -2 -12 -4z"/>
<path d="M6478 3683 c7 -3 16 -2 19 1 4 3 -2 6 -13 5 -11 0 -14 -3 -6 -6z"/>
<path d="M7096 3683 c-3 -4 18 -20 46 -35 123 -68 505 -268 512 -268 24 0 -29
32 -237 141 -127 67 -251 132 -273 145 -23 13 -44 20 -48 17z"/>
<path d="M7020 3632 c0 -4 26 -20 58 -36 31 -15 155 -79 275 -142 120 -64 223
-114 229 -112 7 3 -94 60 -223 128 -129 67 -254 133 -278 146 -46 25 -61 29
-61 16z"/>
<path d="M6950 3592 c0 -11 197 -115 211 -110 5 2 -40 29 -101 61 -60 32 -110
54 -110 49z"/>
<path d="M6880 3552 c0 -12 230 -135 238 -128 7 8 12 5 -120 75 -65 34 -118
58 -118 53z"/>
<path d="M6815 3497 c52 -35 547 -288 557 -285 10 4 -292 168 -489 267 -63 31
-104 42 -68 18z"/>
<path d="M6770 3444 c108 -62 392 -206 396 -201 10 10 -397 227 -425 227 -9 0
4 -12 29 -26z"/>
<path d="M2925 3939 l-35 -31 0 -319 c0 -251 3 -321 13 -331 8 -6 12 -21 9
-33 -3 -16 5 -25 30 -37 18 -8 108 -53 200 -99 l167 -84 71 24 c39 14 81 33
93 44 29 25 73 48 122 62 32 10 42 18 49 45 8 28 7 35 -12 51 -22 17 -22 21
-22 303 l0 286 -50 28 c-27 15 -50 29 -50 32 1 3 21 17 45 32 43 26 60 58 31
58 -8 0 -38 -16 -66 -35 l-53 -35 -68 35 -68 35 -35 -23 c-19 -12 -34 -26 -32
-32 1 -5 19 -19 39 -30 20 -11 35 -24 34 -30 -5 -15 -73 -18 -97 -5 -26 14
-37 6 -20 -14 20 -25 78 -31 116 -12 46 21 45 51 -1 73 -35 17 -42 36 -14 40
8 2 68 -25 134 -60 l120 -62 3 -115 c2 -70 -2 -125 -9 -142 -30 -72 -184 -163
-274 -161 -110 3 -232 52 -270 109 -9 15 -15 46 -15 88 l0 65 58 42 c78 57
122 100 122 119 0 36 -158 150 -207 150 -12 0 -38 -14 -58 -31z m645 -575 c0
-118 -2 -135 -15 -124 -8 6 -19 9 -24 6 -5 -4 -12 -2 -16 3 -4 7 -15 7 -30 1
l-25 -10 0 75 c0 86 -16 100 -25 23 -9 -79 -7 -128 7 -128 4 0 8 -7 8 -16 0
-10 6 -14 15 -10 35 13 11 -13 -34 -37 -53 -29 -66 -33 -55 -16 5 8 1 8 -14 0
-17 -9 -21 -8 -26 7 -2 9 -4 2 -3 -17 4 -63 -16 -61 -163 15 -73 37 -139 74
-146 82 -10 10 -14 45 -14 133 0 65 3 119 6 119 3 0 22 -13 42 -29 40 -32 129
-65 203 -76 70 -10 175 27 247 86 31 26 58 48 60 48 1 1 2 -60 2 -135z"/>
<path d="M3108 3309 c-1 -28 -1 -54 2 -58 6 -9 121 -71 132 -71 24 0 1 20 -51
44 -53 24 -59 30 -63 62 -4 38 7 53 25 35 14 -14 37 -14 37 0 0 5 -4 7 -10 4
-5 -3 -10 -1 -10 6 0 7 -3 10 -6 6 -4 -3 -13 0 -21 8 -24 25 -31 17 -35 -36z"/>
<path d="M5406 3914 c-39 -39 -5 -124 49 -124 56 0 68 80 18 120 -31 24 -47
25 -67 4z m67 -53 c6 -26 -7 -44 -29 -39 -20 3 -30 38 -20 64 8 20 41 2 49
-25z"/>
<path d="M3445 3724 c-60 -35 -112 -69 -114 -76 -3 -9 3 -7 15 3 10 9 57 37
104 64 96 54 129 75 115 74 -6 0 -59 -30 -120 -65z"/>
<path d="M10923 3695 c-47 -20 -53 -40 -49 -164 l3 -111 -43 -19 c-28 -13 -48
-30 -59 -53 -9 -18 -35 -49 -58 -70 -40 -34 -41 -37 -25 -55 9 -10 21 -31 27
-46 6 -16 32 -41 62 -60 l51 -31 -6 -60 c-4 -36 -12 -63 -22 -70 -14 -10 -11
-15 23 -38 70 -47 250 -138 273 -138 13 0 42 12 66 27 35 22 42 32 38 49 -5
18 -1 23 17 26 13 2 28 13 34 25 6 11 26 35 44 52 35 33 36 64 2 89 -14 10
-16 21 -11 60 11 94 0 120 -86 199 -70 64 -78 75 -66 90 68 97 69 120 5 205
-66 87 -151 123 -220 93z m113 -34 c30 -14 54 -37 84 -81 45 -67 47 -95 9
-128 -11 -9 -42 -38 -69 -64 -53 -53 -75 -58 -113 -28 -24 19 -47 83 -35 96 3
2 25 -5 49 -16 50 -22 72 -25 67 -8 -2 6 -31 21 -64 34 -35 13 -60 28 -62 39
-6 29 8 65 24 65 26 0 132 -69 139 -90 7 -23 18 -25 46 -10 22 12 26 40 5 40
-15 0 -98 43 -140 73 -16 12 -40 20 -53 19 -18 -1 -23 3 -23 23 0 28 34 55 70
55 14 0 44 -9 66 -19z m4 -373 c-13 -10 -28 -17 -34 -15 -20 7 -11 27 19 46
26 16 30 16 34 2 2 -8 -7 -23 -19 -33z m-10 -365 c0 -44 -4 -63 -12 -63 -7 0
-44 17 -83 38 l-70 38 -3 67 -3 67 86 -42 85 -42 0 -63z m110 -36 c0 -24 -6
-52 -14 -62 -14 -19 -16 -19 -50 -2 l-36 17 0 70 0 70 50 -25 c48 -24 50 -27
50 -68z"/>
<path d="M10575 3650 c-13 -14 -22 -17 -29 -10 -5 5 -17 10 -25 10 -11 0 -11
-4 3 -19 14 -16 15 -23 6 -41 -15 -29 -2 -41 16 -15 13 17 17 18 35 7 27 -17
40 -5 15 14 -17 12 -18 17 -6 39 17 32 8 41 -15 15z"/>
<path d="M4959 3620 c-14 -44 -13 -44 -92 -30 -76 15 -139 -10 -157 -62 -11
-29 -19 -35 -63 -46 -82 -19 -120 -43 -145 -93 -43 -82 -8 -182 79 -228 l44
-23 -36 -37 c-35 -35 -59 -91 -59 -138 0 -40 27 -26 34 18 15 94 74 146 152
135 56 -7 141 9 174 33 14 10 41 22 60 26 53 11 127 54 166 97 31 35 39 56 35
99 -1 10 16 21 51 32 30 9 80 33 113 53 33 20 79 48 102 61 49 28 59 41 45 55
-7 7 -47 -10 -129 -55 -134 -75 -194 -95 -235 -78 -16 6 -28 14 -28 19 0 5 63
44 141 87 77 44 136 81 131 83 -9 3 -125 -62 -235 -131 -40 -25 -52 -28 -71
-19 -31 14 -55 69 -58 131 -1 28 -3 51 -5 51 -1 0 -8 -18 -14 -40z m-72 -71
c15 -6 36 -19 46 -30 18 -20 18 -20 -92 -17 -61 2 -111 5 -111 7 0 3 10 15 22
28 24 26 85 31 135 12z m11 -79 c74 -12 219 -77 225 -101 12 -45 -44 -108
-133 -148 -61 -28 -70 -26 -70 10 0 24 -17 48 -90 125 -49 51 -90 98 -90 102
0 25 53 29 158 12z m-176 -38 c10 -16 51 -63 93 -104 55 -55 75 -82 75 -101 0
-33 -7 -37 -108 -58 -76 -15 -90 -15 -134 -3 -91 28 -144 99 -131 177 8 50 34
77 94 98 74 25 92 24 111 -9z"/>
<path d="M3440 3543 c0 -47 2 -84 4 -82 9 11 16 169 6 169 -6 0 -10 -34 -10
-87z"/>
<path d="M9555 3571 c-29 -12 -207 -120 -227 -139 -25 -22 -22 -66 7 -100 26
-31 34 -82 13 -82 -39 -1 110 -97 362 -232 121 -65 175 -95 278 -152 158 -88
205 -99 309 -75 67 16 83 26 141 91 27 31 53 54 55 51 3 -2 8 5 12 17 5 15 0
29 -14 44 -15 16 -21 35 -21 68 0 62 -20 84 -128 141 -99 52 -102 53 -102 32
0 -8 39 -34 90 -61 138 -71 141 -94 23 -166 -91 -55 -143 -78 -176 -78 -31 0
-156 63 -527 263 -374 203 -363 187 -191 289 130 77 166 84 251 47 30 -13 57
-18 67 -14 14 6 5 14 -42 36 -61 30 -136 38 -180 20z m136 -432 c370 -203 444
-239 488 -239 42 0 90 21 184 78 37 23 70 42 73 42 3 0 4 -17 2 -37 -3 -35 -8
-40 -103 -97 -140 -85 -146 -85 -350 25 -607 327 -599 322 -603 362 -2 15 1
27 5 27 5 0 142 -73 304 -161z"/>
<path d="M5740 3441 c-42 -13 -92 -41 -450 -253 -190 -112 -464 -273 -609
-358 -145 -85 -279 -170 -299 -187 l-35 -33 5 -76 c6 -95 21 -116 124 -172 43
-24 131 -72 194 -107 63 -34 174 -93 245 -131 123 -64 217 -115 365 -197 273
-151 343 -185 413 -197 l56 -11 128 76 c70 42 189 113 263 158 143 87 324 197
635 385 352 213 337 203 324 218 -6 8 -8 14 -4 14 4 0 -1 12 -10 27 -14 21
-16 38 -11 84 7 76 -3 101 -56 131 -74 44 -1059 569 -1133 604 -70 34 -98 39
-145 25z m190 -112 c82 -45 150 -83 150 -85 0 -2 -29 -27 -65 -55 -67 -53 -78
-75 -47 -101 39 -35 440 -242 487 -252 23 -5 53 4 129 39 l99 44 170 -92 c94
-51 172 -96 174 -102 1 -5 -91 -67 -205 -136 -402 -244 -1007 -612 -1037 -630
l-30 -17 -135 72 c-74 41 -367 198 -650 350 -283 153 -518 281 -522 284 -4 4
27 28 70 53 220 131 1002 591 1096 646 63 36 122 63 138 63 16 0 93 -35 178
-81z m184 -1276 c-51 -38 -306 -185 -311 -179 -4 3 -2 11 4 17 26 26 307 188
316 182 6 -3 2 -12 -9 -20z"/>
<path d="M5560 3180 c0 -5 -8 -10 -17 -11 -14 0 -13 -2 5 -9 12 -5 22 -14 22
-20 0 -6 7 -4 16 4 14 14 14 18 0 31 -17 17 -26 19 -26 5z"/>
<path d="M5603 3071 c-34 -20 -61 -40 -59 -46 1 -5 209 -119 460 -252 l458
-243 62 35 c112 63 122 47 -111 169 -114 60 -321 169 -460 243 -139 73 -260
133 -270 132 -10 -1 -46 -17 -80 -38z m174 -83 c91 -48 88 -46 80 -54 -5 -6
-177 83 -177 92 0 10 24 1 97 -38z"/>
<path d="M5332 3031 c-33 -21 -40 -30 -30 -38 21 -17 197 -103 210 -103 20 0
89 50 83 60 -8 12 -193 110 -208 109 -6 0 -31 -13 -55 -28z m60 -42 c23 -12
60 -27 82 -34 l41 -13 -35 -1 c-35 -1 -100 24 -143 54 -34 24 5 20 55 -6z"/>
<path d="M5220 2956 c0 -2 62 -37 138 -77 75 -40 175 -93 222 -119 134 -74
653 -345 669 -348 47 -12 -38 36 -337 194 -185 97 -411 217 -502 266 -147 79
-190 97 -190 84z"/>
<path d="M5160 2910 c8 -6 47 -26 85 -46 39 -20 165 -87 280 -149 485 -259
656 -347 662 -341 8 8 36 -7 -322 181 -176 92 -372 196 -435 230 -159 87 -257
135 -272 135 -9 0 -8 -3 2 -10z"/>
<path d="M5104 2865 c17 -13 321 -172 359 -187 9 -4 17 -4 17 1 0 9 -367 201
-384 201 -6 0 -3 -7 8 -15z"/>
<path d="M5021 2836 c2 -2 81 -44 174 -93 732 -388 902 -474 860 -434 -9 8
-232 125 -835 440 -96 50 -181 91 -189 91 -8 0 -12 -2 -10 -4z"/>
<path d="M4960 2795 c7 -8 15 -15 19 -15 4 0 67 -32 140 -70 74 -39 136 -68
139 -65 8 7 11 6 -149 89 -150 78 -170 87 -149 61z"/>
<path d="M5152 2511 c-89 -31 -127 -81 -97 -127 37 -57 157 -82 255 -53 56 17
110 68 110 103 0 77 -146 119 -268 77z m162 -11 c22 -5 51 -20 65 -34 l25 -26
-20 -27 c-39 -51 -80 -68 -171 -68 -67 0 -86 4 -110 21 -60 45 -31 102 67 128
65 17 92 19 144 6z"/>
<path d="M5567 2344 c-15 -8 -27 -17 -27 -20 0 -2 12 2 27 9 25 13 31 12 85
-20 33 -19 62 -33 64 -30 3 2 -14 16 -38 29 -81 47 -81 47 -111 32z"/>
<path d="M5585 2310 c3 -5 11 -10 16 -10 6 0 7 5 4 10 -3 6 -11 10 -16 10 -6
0 -7 -4 -4 -10z"/>
<path d="M5550 2291 c0 -9 99 -55 106 -49 2 2 -21 16 -51 31 -30 15 -55 23
-55 18z"/>
<path d="M5620 2296 c0 -2 7 -7 16 -10 8 -3 12 -2 9 4 -6 10 -25 14 -25 6z"/>
<path d="M5500 2275 c0 -2 23 -16 50 -30 62 -31 65 -26 6 9 -44 26 -56 30 -56
21z"/>
<path d="M5450 2240 c8 -6 24 -16 35 -22 20 -11 20 -11 1 11 -11 11 -26 21
-35 21 -14 0 -14 -2 -1 -10z"/>
<path d="M5517 2199 c7 -7 15 -10 18 -7 3 3 -2 9 -12 12 -14 6 -15 5 -6 -5z"/>
<path d="M9488 3413 c7 -3 16 -2 19 1 4 3 -2 6 -13 5 -11 0 -14 -3 -6 -6z"/>
<path d="M8745 3160 c-191 -116 -245 -154 -245 -172 0 -15 74 -55 517 -277
l442 -222 33 17 c45 23 138 86 228 154 41 31 81 55 89 52 7 -2 12 1 10 7 -3 7
-68 42 -146 79 -78 37 -142 70 -143 75 0 4 11 12 24 18 21 10 35 7 88 -18 35
-16 94 -48 132 -71 70 -43 86 -49 86 -33 0 16 -48 45 -189 116 -89 44 -130 70
-121 75 11 7 286 -116 348 -156 38 -25 27 -48 -45 -95 -63 -41 -68 -47 -71
-84 -4 -45 2 -40 -171 -147 -69 -43 -135 -78 -148 -78 -23 0 -68 22 -408 205
-430 231 -553 295 -563 295 -30 0 8 -33 81 -71 82 -43 261 -139 651 -349 208
-112 209 -113 265 -107 38 3 82 18 138 46 44 22 87 41 95 41 16 1 45 22 46 33
0 5 4 12 8 15 4 4 4 1 0 -5 -12 -21 -2 -16 114 53 l111 65 -25 20 c-23 18 -26
28 -26 78 0 42 -5 65 -19 82 -23 30 -901 468 -951 475 -31 4 -58 -9 -235 -116z
m450 -6 c127 -64 254 -128 283 -142 56 -28 63 -37 32 -47 -11 -3 -42 -24 -69
-45 -51 -40 -73 -43 -114 -14 -17 11 -15 15 33 53 28 23 56 41 61 41 5 0 9 5
9 10 0 6 -9 10 -21 10 -20 0 -388 184 -434 217 -24 18 -32 33 -17 33 4 0 111
-52 237 -116z m-260 -48 c18 -13 18 -14 -3 -25 -18 -9 -27 -8 -47 5 -14 9 -25
20 -25 25 0 14 54 11 75 -5z m-147 -72 c12 -4 22 -10 22 -15 0 -13 -23 -10
-44 6 -21 16 -15 18 22 9z m32 -68 c63 -29 129 -58 145 -63 17 -6 39 -14 49
-19 16 -6 18 -4 12 11 -4 10 -2 21 5 25 11 7 69 -10 69 -20 -1 -7 -89 -60
-100 -60 -11 0 -247 114 -287 139 -33 21 -43 41 -20 41 6 0 64 -24 127 -54z
m104 18 c21 -21 20 -36 -1 -32 -10 2 -18 13 -19 26 -1 26 0 27 20 6z m442
-104 c13 0 14 -3 4 -15 -7 -8 -18 -15 -25 -15 -7 0 -29 -14 -50 -30 -31 -25
-45 -30 -69 -24 -33 7 -56 21 -56 35 0 4 28 24 62 43 58 32 64 34 89 20 16 -8
36 -14 45 -14z m272 -87 c73 -37 128 -69 123 -71 -12 -4 -262 106 -281 124
-34 33 31 11 158 -53z m-171 32 c27 -14 93 -43 148 -66 55 -23 104 -45 108
-49 9 -8 -216 -168 -249 -176 -13 -3 -32 1 -46 10 l-22 16 22 0 c15 0 22 6 22
20 0 11 6 21 13 21 6 1 18 2 24 3 7 0 13 6 13 11 0 6 -28 9 -69 7 -57 -2 -73
1 -92 18 -20 17 -22 21 -9 29 33 21 55 40 50 44 -3 2 -17 7 -31 11 -21 4 -26
2 -25 -11 2 -26 -45 -39 -83 -22 -37 16 -38 20 -10 44 17 16 25 17 51 7 29
-11 30 -11 13 8 -16 18 -15 19 14 34 17 9 47 27 67 41 20 14 38 25 40 25 2 0
25 -11 51 -25z m-276 -32 c37 -22 36 -27 -3 -46 -33 -16 -59 -11 -101 18 -20
14 -20 15 14 29 44 20 55 19 90 -1z m727 -105 c-4 -13 -96 -78 -110 -78 -5 0
-8 7 -8 15 0 8 24 28 53 45 57 33 71 36 65 18z"/>
<path d="M9408 2933 c7 -3 16 -2 19 1 4 3 -2 6 -13 5 -11 0 -14 -3 -6 -6z"/>
<path d="M9240 2850 c0 -5 5 -10 11 -10 5 0 7 5 4 10 -3 6 -8 10 -11 10 -2 0
-4 -4 -4 -10z"/>
<path d="M9450 2765 c-15 -8 -19 -14 -10 -14 18 -1 46 16 40 23 -3 2 -16 -2
-30 -9z"/>
<path d="M4235 3261 c-3 -6 -3 -11 1 -11 4 0 -1 -9 -11 -20 -17 -19 -17 -20 0
-20 10 0 24 -8 31 -17 12 -17 13 -17 19 0 4 9 16 17 26 17 10 0 19 5 19 10 0
6 -4 10 -10 10 -5 0 -10 7 -10 15 0 8 -6 15 -14 15 -8 0 -21 3 -29 6 -8 3 -18
1 -22 -5z"/>
<path d="M10160 3160 c-9 -6 -10 -10 -3 -10 6 0 15 5 18 10 8 12 4 12 -15 0z"/>
<path d="M3914 3150 c-34 -8 -194 -92 -319 -168 -97 -59 -107 -83 -49 -120 77
-50 360 -201 406 -218 61 -21 98 -10 245 77 123 73 127 77 114 121 -6 21 -10
26 -10 12 -1 -15 -30 -36 -118 -86 -146 -82 -178 -98 -196 -98 -21 0 -460 234
-460 245 -1 18 52 30 73 17 16 -10 19 -8 22 16 3 22 23 38 138 107 128 75 138
80 195 80 49 0 75 -7 140 -38 93 -44 90 -35 -5 16 -69 37 -126 49 -176 37z"/>
<path d="M10254 3074 c-18 -14 -18 -15 4 -4 12 6 22 13 22 15 0 8 -5 6 -26
-11z"/>
<path d="M3873 3070 c-55 -11 -97 -34 -122 -66 -68 -87 51 -171 203 -143 143
26 176 44 176 100 0 42 -44 83 -110 103 -58 17 -83 18 -147 6z m76 -24 c-11
-9 -69 -15 -64 -6 3 6 20 10 37 10 17 0 29 -2 27 -4z m74 -12 c43 -14 87 -53
87 -76 0 -23 -50 -58 -82 -57 l-33 1 34 12 c43 15 63 42 41 56 -22 14 -31 12
-37 -7 -7 -29 -105 -83 -150 -83 -52 0 -106 29 -118 64 -9 25 -6 31 23 57 32
28 62 38 62 20 0 -5 14 -19 30 -31 l30 -22 36 21 c19 12 42 21 50 21 23 0 16
15 -13 27 -44 17 -12 15 40 -3z m-78 -23 c-8 -13 -35 -15 -35 -2 0 5 8 11 18
13 21 5 26 2 17 -11z"/>
<path d="M3812 2979 c2 -6 8 -10 13 -10 5 0 11 4 13 10 2 6 -4 11 -13 11 -9 0
-15 -5 -13 -11z"/>
<path d="M3903 2913 c9 -2 23 -2 30 0 6 3 -1 5 -18 5 -16 0 -22 -2 -12 -5z"/>
<path d="M4227 3029 c7 -7 15 -10 18 -7 3 3 -2 9 -12 12 -14 6 -15 5 -6 -5z"/>
<path d="M10646 2908 c-22 -31 -20 -61 9 -118 18 -36 25 -65 25 -108 l0 -60
-47 -31 c-42 -27 -45 -31 -23 -31 45 0 68 -12 74 -36 4 -13 13 -24 21 -24 11
0 15 13 15 50 l0 51 31 -16 c44 -23 47 -12 5 15 -35 21 -36 24 -36 83 0 53 4
65 27 89 38 40 36 93 -6 130 -38 34 -74 36 -95 6z m85 -50 c9 -17 8 -28 -6
-55 -17 -30 -35 -44 -35 -25 0 4 -3 17 -6 28 -5 19 -2 21 20 17 30 -6 33 3 10
28 -13 14 -21 16 -35 8 -22 -11 -23 -6 -9 22 9 15 15 17 30 9 11 -6 25 -20 31
-32z"/>
<path d="M3635 2897 c59 -40 216 -117 238 -117 15 0 42 -7 60 -16 23 -11 40
-13 51 -7 12 7 1 12 -46 22 -69 14 -153 49 -236 99 -54 32 -110 48 -67 19z"/>
<path d="M8180 2882 c0 -4 6 -14 13 -21 10 -11 10 -14 0 -18 -15 -5 -18 -33
-4 -33 6 0 13 5 17 11 4 8 9 8 17 0 18 -18 30 -12 24 11 -4 12 -1 29 6 37 10
12 8 13 -15 8 -15 -4 -30 -3 -33 3 -7 12 -25 13 -25 2z"/>
<path d="M4150 2810 c-63 -38 -119 -71 -125 -73 -5 -2 -7 -7 -4 -11 8 -8 259
133 259 145 0 16 -12 10 -130 -61z"/>
<path d="M7613 2681 c-20 -9 -164 -94 -688 -405 -688 -409 -754 -450 -764
-473 -6 -13 -11 -60 -11 -104 0 -104 16 -139 78 -170 26 -13 76 -40 111 -61
34 -21 65 -38 66 -38 2 0 30 -15 62 -34 32 -18 117 -64 188 -101 72 -37 135
-71 140 -75 6 -5 81 -44 169 -89 87 -45 170 -90 185 -100 38 -28 129 -68 183
-81 51 -13 95 -4 153 31 34 22 49 24 39 7 -4 -7 -3 -8 5 -4 6 4 9 11 6 16 -7
12 66 49 84 42 9 -3 11 0 6 8 -5 9 -4 11 4 6 11 -7 254 135 267 156 4 6 -3 5
-15 -1 -11 -7 -21 -9 -21 -7 0 11 103 64 114 60 7 -3 48 17 91 44 142 86 557
337 656 395 56 33 97 64 98 74 2 10 3 72 3 138 1 170 -11 195 -121 255 l-82
45 43 8 c63 13 117 35 166 68 24 16 57 36 75 45 45 24 49 34 21 67 -13 16 -24
41 -24 58 0 111 -110 185 -290 196 -142 8 -258 -28 -345 -108 l-43 -40 -59 33
-59 32 -46 -22 -45 -23 -144 77 c-147 79 -205 96 -256 75z m147 -49 c65 -33
233 -124 240 -129 2 -2 -2 -8 -10 -13 -29 -18 6 -44 166 -128 208 -108 254
-126 287 -111 23 10 40 4 168 -63 142 -73 167 -93 157 -119 -3 -8 -253 -165
-554 -348 -302 -184 -619 -378 -704 -430 -129 -80 -162 -96 -195 -95 -32 0
-98 31 -345 164 -168 91 -412 221 -543 290 -146 77 -237 131 -237 140 0 8 19
27 43 41 77 48 1090 651 1207 719 216 126 227 129 320 82z m955 -14 c119 -29
177 -102 154 -194 -14 -55 -49 -91 -125 -126 -71 -33 -189 -48 -237 -29 -28
11 -28 11 -10 35 15 20 29 24 102 29 140 10 231 70 231 151 0 29 -33 76 -53
76 -6 0 0 -11 13 -24 70 -75 -25 -169 -184 -185 -77 -7 -88 -4 -61 19 8 7 15
19 15 28 0 12 -5 11 -23 -6 -28 -26 -38 -27 -77 -7 -32 17 -37 34 -18 65 14
22 18 18 -55 59 l-58 32 -37 -21 -37 -22 43 41 c91 85 263 117 417 79z m-532
-117 c94 -51 115 -55 161 -32 20 11 45 17 56 14 24 -6 24 -7 3 -40 -17 -26
-17 -26 22 -59 21 -19 44 -34 52 -34 24 0 13 -16 -34 -49 l-47 -33 -65 35
c-36 19 -123 65 -193 101 -71 37 -128 72 -128 76 0 12 71 60 88 60 7 0 45 -17
85 -39z m157 0 c0 -5 -7 -12 -16 -15 -14 -5 -15 -4 -4 9 14 17 20 19 20 6z
m428 -666 c-13 -12 -126 -84 -253 -160 -126 -76 -428 -259 -671 -407 -400
-243 -445 -268 -485 -268 -36 0 -70 14 -184 76 -77 42 -270 146 -430 231 -469
252 -542 292 -554 307 -7 8 -11 32 -9 53 l3 39 400 -216 c220 -119 470 -253
555 -299 177 -96 213 -105 280 -71 43 22 322 189 1025 613 l340 206 3 -41 c3
-33 -2 -46 -20 -63z"/>
<path d="M7398 2338 c6 -7 44 -31 84 -52 l73 -39 50 31 c38 24 46 32 33 37
-11 4 -27 -3 -45 -19 -15 -14 -31 -26 -34 -26 -3 0 -39 18 -79 40 -75 41 -101
50 -82 28z"/>
<path d="M7760 2262 c0 -4 28 -22 63 -39 34 -18 118 -62 187 -99 139 -74 170
-87 170 -75 0 7 -401 221 -415 221 -3 0 -5 -4 -5 -8z"/>
<path d="M7088 2197 c-79 -46 -104 -67 -80 -67 5 0 44 -20 88 -45 43 -25 87
-45 98 -45 27 0 190 90 179 100 -4 5 -51 30 -103 58 l-95 49 -87 -50z m160
-12 c105 -54 104 -49 21 -90 l-74 -38 -72 39 c-40 21 -73 42 -73 46 0 5 117
76 128 78 1 0 33 -16 70 -35z"/>
<path d="M7165 2143 c-17 -12 -18 -15 -5 -23 25 -16 50 -12 50 9 0 25 -21 32
-45 14z"/>
<path d="M7120 2130 c0 -5 5 -10 10 -10 6 0 10 5 10 10 0 6 -4 10 -10 10 -5 0
-10 -4 -10 -10z"/>
<path d="M7228 2133 c7 -3 16 -2 19 1 4 3 -2 6 -13 5 -11 0 -14 -3 -6 -6z"/>
<path d="M7694 2221 c10 -15 237 -132 249 -128 10 3 -231 137 -247 137 -4 0
-5 -4 -2 -9z"/>
<path d="M7630 2175 c0 -7 218 -115 232 -115 7 0 -36 27 -97 60 -101 54 -135
68 -135 55z"/>
<path d="M7463 2076 c35 -27 409 -218 414 -212 9 8 20 2 -205 120 -183 96
-258 129 -209 92z"/>
<path d="M7390 2041 c0 -12 218 -123 231 -119 10 3 -211 128 -225 128 -3 0 -6
-4 -6 -9z"/>
<path d="M6738 1984 c-43 -24 -78 -48 -78 -52 0 -12 173 -104 196 -104 23 -1
164 79 164 92 0 5 -8 11 -18 14 -9 3 -53 26 -96 51 -44 25 -82 45 -85 45 -3 0
-41 -21 -83 -46z m201 -42 c42 -25 43 -25 21 -37 -19 -10 -30 -8 -67 12 -41
22 -83 24 -83 4 0 -10 66 -41 88 -41 14 0 12 -4 -7 -19 -25 -19 -25 -19 -108
22 -46 23 -83 45 -83 49 0 5 11 14 25 20 22 10 28 9 41 -10 17 -25 39 -30 31
-8 -4 10 -1 13 9 9 7 -3 14 0 14 6 0 11 -13 15 -37 12 -21 -3 -15 15 10 32 24
16 40 10 146 -51z"/>
<path d="M7350 1974 c60 -35 192 -95 197 -90 7 6 -205 116 -224 116 -10 0 1
-11 27 -26z"/>
<path d="M6878 1692 c40 -30 405 -215 401 -203 -3 7 -93 59 -202 117 -184 97
-253 127 -199 86z"/>
<path d="M6790 1657 c24 -23 413 -221 408 -207 -4 12 -359 203 -401 215 -19 6
-20 5 -7 -8z"/>
<path d="M8495 2591 c-31 -8 -95 -38 -95 -46 0 -2 21 5 47 17 25 11 78 24 117
28 69 7 69 7 16 8 -30 0 -68 -3 -85 -7z"/>
<path d="M8653 2583 c9 -2 23 -2 30 0 6 3 -1 5 -18 5 -16 0 -22 -2 -12 -5z"/>
<path d="M8708 2573 c7 -3 16 -2 19 1 4 3 -2 6 -13 5 -11 0 -14 -3 -6 -6z"/>
<path d="M8705 2474 c-18 -16 -22 -22 -9 -15 18 9 53 42 43 41 -2 -1 -17 -12
-34 -26z"/>
<path d="M9147 2340 c-71 -22 -130 -62 -157 -105 -29 -47 -28 -141 3 -186 28
-43 130 -95 212 -110 127 -23 283 14 362 85 46 42 47 44 51 112 3 60 1 74 -20
104 -33 48 -93 87 -163 105 -81 21 -215 19 -288 -5z m263 -16 c111 -26 180
-88 180 -162 0 -54 -28 -90 -96 -123 -252 -124 -611 32 -459 200 76 84 231
119 375 85z"/>
<path d="M9176 2296 c-22 -8 -48 -23 -58 -34 -20 -19 -20 -20 0 -58 11 -22 32
-50 47 -64 l26 -24 134 69 c73 39 135 68 138 65 2 -3 8 -15 11 -27 6 -18 3
-23 -11 -23 -11 0 -34 -16 -53 -35 -42 -43 -105 -65 -188 -65 -46 0 -63 -3
-60 -12 3 -9 26 -12 79 -10 94 4 134 17 183 59 22 18 43 33 48 33 24 0 -15
-60 -40 -61 -9 0 -4 -5 12 -9 17 -6 36 -5 47 0 25 14 59 60 59 80 0 23 -36 67
-46 57 -4 -4 -2 -13 4 -19 18 -18 14 -63 -9 -92 -31 -40 -42 -31 -13 11 16 25
23 44 19 58 -4 11 -8 29 -9 40 -3 25 -52 55 -91 55 -23 0 -26 -3 -15 -10 19
-12 6 -22 -116 -87 l-92 -48 -21 25 c-11 14 -20 33 -21 42 0 26 40 58 74 58
25 0 34 -6 44 -30 13 -28 15 -29 40 -16 43 22 68 54 54 68 -18 18 -131 20
-176 4z"/>
<path d="M9210 2237 c0 -17 7 -28 21 -32 32 -11 35 2 6 31 l-27 27 0 -26z"/>
<path d="M9050 2200 c0 -5 5 -10 11 -10 5 0 7 5 4 10 -3 6 -8 10 -11 10 -2 0
-4 -4 -4 -10z"/>
<path d="M9042 2148 c5 -32 28 -35 28 -4 0 17 -5 26 -16 26 -10 0 -14 -7 -12
-22z"/>
<path d="M9112 2100 c-18 -29 -15 -33 12 -13 13 10 22 21 19 26 -7 12 -18 8
-31 -13z"/>
<path d="M7935 1240 c-3 -6 1 -7 9 -4 18 7 21 14 7 14 -6 0 -13 -4 -16 -10z"/>
<path d="M7584 1024 c-18 -14 -18 -15 4 -4 12 6 22 13 22 15 0 8 -5 6 -26 -11z"/>
</g>
</svg>
